Coordinates
datacolumns 6
datarows 179
range 0 1.78
inDegrees=yes
Units are S.I. units (second, meters, Newtons, ...)
If the header above contains a line with 'inDegrees', this indicates whether rotational values are in degrees (yes) or radians (no).
endheader
time	foot_tx	hip_flexion_r	knee_angle_r	ankle_angle_r	lumbar
0	0.17583561	56.5935846	-72.26206571	5.41957584	-20.8979932
0.01	0.17579323	56.62901405	-72.24163463	5.40501983	-20.99930719
0.02	0.17575578	56.69932356	-72.22156925	5.38779697	-21.07554363
0.03	0.17570039	56.70532539	-72.20044397	5.37730954	-21.23734433
0.04	0.17564915	56.74636119	-72.18058619	5.36491262	-21.37525097
0.05	0.17559596	56.79097974	-72.16152105	5.35360942	-21.52457383
0.06	0.17553918	56.83821668	-72.14334986	5.34377913	-21.68659048
0.07	0.17548051	56.88950138	-72.12608709	5.33539	-21.85969484
0.08	0.1754203	56.94519998	-72.10962275	5.3285094	-22.04333718
0.09	0.17536056	57.00657688	-72.09364788	5.32289365	-22.23604265
0.1	0.17529919	57.07339353	-72.07751911	5.318476	-22.43821975
0.11	0.17524635	57.15073176	-72.06165736	5.31430887	-22.6440209
0.12	0.17519341	57.23608894	-72.04466258	5.31050813	-22.85715044
0.13	0.17514808	57.33423145	-72.02620036	5.30596628	-23.07258783
0.14	0.17510129	57.44447618	-72.00769938	5.30220073	-23.29136867
0.15	0.175057	57.56902461	-71.98808245	5.29833997	-23.51136785
0.16	0.17501552	57.70804717	-71.9672216	5.29460986	-23.73241893
0.17	0.1749708	57.85918546	-71.94646813	5.29266237	-23.95720793
0.18	0.17492943	58.05490122	-71.92652954	5.28970477	-24.15056337
0.19	0.17487458	58.1967379	-71.90478016	5.29450946	-24.42094575
0.2	0.17482237	58.41055324	-71.886356	5.29763903	-24.6305831
0.21	0.17475583	58.57068668	-71.8667226	5.30918671	-24.91801429
0.22	0.17469979	58.80312347	-71.84855695	5.31774715	-25.14565991
0.23	0.17462428	58.97271791	-71.82975491	5.33636864	-25.46218176
0.24	0.17455544	59.18531654	-71.8116977	5.35455564	-25.75200435
0.25	0.17448622	59.4096935	-71.79379734	5.37508156	-26.05041656
0.26	0.17442575	59.68575168	-71.77697742	5.39387277	-26.31482484
0.27	0.17436068	59.92647999	-71.75781312	5.41731241	-26.64196551
0.28	0.17428302	60.23515539	-71.7459787	5.44196447	-26.91865325
0.29	0.17421407	60.56016636	-71.73088037	5.46553108	-27.20046062
0.3	0.17414283	60.94729302	-71.71851452	5.48868953	-27.43415442
0.31	0.17406847	61.34939454	-71.70464794	5.51365873	-27.67115706
0.32	0.1739886	61.78627597	-71.69051464	5.53962055	-27.88879114
0.33	0.17390296	62.25450518	-71.67557537	5.56726014	-28.0886969
0.34	0.17381268	62.74273146	-71.65838815	5.59805489	-28.27968615
0.35	0.17371738	63.2402728	-71.63747555	5.6336998	-28.46989812
0.36	0.17361484	63.7348884	-71.61308493	5.67672461	-28.66963443
0.37	0.17351014	64.22866171	-71.58353746	5.72616848	-28.8762912
0.38	0.17340879	64.72203454	-71.54862893	5.7813315	-29.08952534
0.39	0.17330796	65.22463889	-71.50873522	5.84163761	-29.30043241
0.4	0.17321388	65.74240907	-71.46369689	5.90581446	-29.50312256
0.41	0.17312538	66.27668176	-71.41435321	5.97432486	-29.69650254
0.42	0.17303594	66.82951342	-71.36343549	6.04900683	-29.87758951
0.43	0.17295598	67.40285844	-71.30805349	6.12760614	-30.04402513
0.44	0.17288245	67.99421768	-71.25001905	6.21198751	-30.19669662
0.45	0.17282126	68.60055283	-71.18878167	6.30199822	-30.33699468
0.46	0.17277114	69.21883247	-71.12442441	6.39863744	-30.46623324
0.47	0.17275086	69.85249846	-71.05271741	6.49849715	-30.57831272
0.48	0.17273153	70.48069731	-70.98066579	6.60934003	-30.69522705
0.49	0.17274685	71.12444343	-70.89835041	6.72195312	-30.79170251
0.5	0.17278889	71.77600682	-70.80609475	6.83806646	-30.87476526
0.51	0.17285913	72.43532107	-70.70157844	6.95670376	-30.94243651
0.52	0.17296643	73.10780915	-70.5804289	7.07489298	-30.98592937
0.53	0.17308061	73.77889055	-70.44746325	7.19858892	-31.02029697
0.54	0.17322246	74.46279472	-70.29507922	7.32138236	-31.02561534
0.55	0.17337401	75.15413869	-70.12374611	7.445384	-31.00508878
0.56	0.17353563	75.84333383	-69.9338144	7.57122478	-30.96568635
0.57	0.17368602	76.52956315	-69.72646692	7.70112619	-30.90451676
0.58	0.17382882	77.21030441	-69.50086282	7.83399526	-30.82028792
0.59	0.17395946	77.88085605	-69.25838832	7.97066635	-30.71393193
0.6	0.17406111	78.52853521	-69.00524511	8.11600548	-30.59511286
0.61	0.17414161	79.15278248	-68.74082848	8.2683014	-30.45944309
0.62	0.17420603	79.73920005	-68.46874258	8.42922742	-30.31918708
0.63	0.17424982	80.28414143	-68.19249099	8.60001759	-30.17305515
0.64	0.17427817	80.77945282	-67.91427549	8.78047397	-30.02639096
0.65	0.17429961	81.21976457	-67.63577086	8.96968832	-29.88135605
0.66	0.17431984	81.60143714	-67.35807873	9.16624684	-29.73879384
0.67	0.17434761	81.92126246	-67.08088794	9.36786918	-29.59973658
0.68	0.17438797	82.17683442	-66.80332566	9.57228391	-29.46548788
0.69	0.1744405	82.36774404	-66.52389151	9.77746733	-29.3348845
0.7	0.17450309	82.49486675	-66.24089618	9.98161348	-29.20656425
0.71	0.17457227	82.5607974	-65.95224996	10.18310975	-29.07720581
0.72	0.17464886	82.56630923	-65.65518142	10.3802384	-28.94607733
0.73	0.17472891	82.51448032	-65.34736822	10.5719768	-28.80915424
0.74	0.17481149	82.38998619	-65.02616685	10.7585867	-28.68536162
0.75	0.17490329	82.22904687	-64.68721811	10.93500408	-28.5322896
0.76	0.1749953	82.03089445	-64.32878245	11.10152466	-28.3510503
0.77	0.17509753	81.79308916	-63.94516889	11.25528641	-28.14633241
0.78	0.17520017	81.51619298	-63.53445821	11.39621809	-27.91901339
0.79	0.17529966	81.20277744	-63.09362063	11.52293451	-27.66955742
0.8	0.17539075	80.82084998	-62.6207721	11.63728365	-27.43932639
0.81	0.17548525	80.44830616	-62.11119507	11.72955395	-27.1402035
0.82	0.17556073	80.0169428	-61.5684564	11.80799438	-26.85792094
0.83	0.17565174	79.59142568	-60.98628693	11.86139785	-26.52078292
0.84	0.17571794	79.0963064	-60.37378569	11.90285313	-26.22242348
0.85	0.17579434	78.59356329	-59.72672713	11.92251063	-25.89325568
0.86	0.17587464	78.06429246	-59.05018493	11.92463837	-25.55846276
0.87	0.17595875	77.50918514	-58.34599469	11.91006228	-25.22075643
0.88	0.17605437	76.92686917	-57.61985797	11.88108277	-24.88255519
0.89	0.1761662	76.31764192	-56.87521723	11.83915289	-24.54486954
0.9	0.17630225	75.68206444	-56.11689584	11.78620937	-24.20933054
0.91	0.17646659	75.01983715	-55.34855911	11.72403796	-23.8759616
0.92	0.1766642	74.33251822	-54.57373631	11.65414469	-23.54436828
0.93	0.17689457	73.62087337	-53.79673203	11.57867213	-23.21406887
0.94	0.17715532	72.88387915	-53.02119774	11.49976464	-22.88775936
0.95	0.17743206	72.12448647	-52.24970262	11.41949568	-22.56230895
0.96	0.17771453	71.34353972	-51.48554387	11.34022049	-22.23746272
0.97	0.17799004	70.54232899	-50.72886935	11.262675	-21.91319053
0.98	0.17825072	69.71992464	-49.98054282	11.18823136	-21.58895547
0.99	0.17849768	68.88057377	-49.23769774	11.11471342	-21.26139669
1	0.1787274	68.01985484	-48.50049514	11.04309518	-20.93666305
1.01	0.17894013	67.13952519	-47.76625166	10.97206795	-20.61218638
1.02	0.17915031	66.24672121	-47.03236181	10.89877399	-20.27988484
1.03	0.17935066	65.33784895	-46.29859213	10.82439453	-19.9434792
1.04	0.17954625	64.4162651	-45.56446751	10.74830072	-19.59925282
1.05	0.1797426	63.48903824	-44.82905872	10.66940147	-19.23808212
1.06	0.17993963	62.55593653	-44.09131987	10.5873058	-18.86042211
1.07	0.18013755	61.62040727	-43.34859718	10.50052495	-18.46150987
1.08	0.18033374	60.67784637	-42.59990899	10.40945588	-18.04655613
1.09	0.18052939	59.72376194	-41.8425248	10.31335177	-17.62016757
1.1	0.18072435	58.75257002	-41.07465797	10.2123188	-17.18696098
1.11	0.18091728	57.75472906	-40.29531429	10.10717201	-16.759338
1.12	0.18110758	56.72757703	-39.50391421	9.99817147	-16.34085279
1.13	0.18129799	55.67438401	-38.69929436	9.88426727	-15.92866619
1.14	0.18148404	54.58773191	-37.88315822	9.76711111	-15.53463597
1.15	0.18166565	53.47076903	-37.05513742	9.64584272	-15.15744059
1.16	0.18184327	52.33094432	-36.21517234	9.51927019	-14.79076948
1.17	0.18201502	51.17051516	-35.36438433	9.38735516	-14.43546361
1.18	0.18218328	49.99780043	-34.50303553	9.24913984	-14.08300306
1.19	0.18234125	48.81064406	-33.63387411	9.10658187	-13.73725445
1.2	0.18249262	47.61773199	-32.75566334	8.95811246	-13.38900103
1.21	0.18263603	46.41976905	-31.87081531	8.80520916	-13.03790394
1.22	0.18277891	45.21353789	-30.98081616	8.64842024	-12.68917512
1.23	0.18291374	44.00125374	-30.09133207	8.49119536	-12.3421741
1.24	0.18304519	42.79150125	-29.20190503	8.33241023	-11.98770769
1.25	0.18318142	41.58677049	-28.31727964	8.17341171	-11.62683831
1.26	0.18331463	40.38894711	-27.44081265	8.01593324	-11.26237638
1.27	0.183449	39.20372306	-26.57557649	7.86047244	-10.89031099
1.28	0.18359169	38.04252402	-25.72227186	7.70535309	-10.50532646
1.29	0.18372385	36.90243652	-24.88495168	7.55459602	-10.10738643
1.3	0.18386344	35.78567901	-24.06540976	7.40648925	-9.705578
1.31	0.18399418	34.69446731	-23.26576369	7.26348724	-9.29454754
1.32	0.18413075	33.63434855	-22.4845416	7.12308771	-8.87258887
1.33	0.18426809	32.60232426	-21.72447691	6.98693949	-8.44603692
1.34	0.18440212	31.59891543	-20.98622252	6.85589564	-8.01275429
1.35	0.18454469	30.62618312	-20.26820294	6.72800643	-7.57299072
1.36	0.1846902	29.68187408	-19.57132465	6.60372911	-7.13237552
1.37	0.18484106	28.76458641	-18.89369915	6.48193496	-6.69270147
1.38	0.18499801	27.87754634	-18.23236884	6.36034899	-6.25072706
1.39	0.18513956	27.01787416	-17.58817955	6.24084862	-5.80986242
1.4	0.18527876	26.18516764	-16.95558138	6.1194466	-5.37068804
1.41	0.18539595	25.37804281	-16.33639342	5.99825622	-4.93590887
1.42	0.18548889	24.59700616	-15.73332268	5.87915849	-4.50483369
1.43	0.18555852	23.84332065	-15.14782282	5.76263811	-4.07924996
1.44	0.18560496	23.11629277	-14.58235438	5.64994316	-3.66178937
1.45	0.18562791	22.41904897	-14.03667571	5.54078255	-3.24965292
1.46	0.18562948	21.75044342	-13.51025814	5.43514088	-2.84303238
1.47	0.1856118	21.10778522	-13.00352221	5.33317625	-2.44562712
1.48	0.18557917	20.49114382	-12.51529722	5.23395067	-2.05800993
1.49	0.18553158	19.9040098	-12.04421957	5.13621321	-1.67614939
1.5	0.18546106	19.33941134	-11.59108543	5.04221864	-1.30405707
1.51	0.1853753	18.80231877	-11.15486128	4.94965732	-0.94078488
1.52	0.18526298	18.29239713	-10.73313689	4.8586026	-0.58226214
1.53	0.1851247	17.80889116	-10.32795126	4.76998392	-0.23098253
1.54	0.18495591	17.35090261	-9.93759005	4.68355191	0.1141923
1.55	0.18475325	16.91730344	-9.5609485	4.59919944	0.45361048
1.56	0.18451677	16.50433658	-9.19751953	4.51727638	0.78454696
1.57	0.18424865	16.11186327	-8.84489181	4.43660269	1.10880286
1.58	0.18395465	15.735919	-8.50445021	4.35821386	1.42181099
1.59	0.18364115	15.37544351	-8.176246	4.28201195	1.72232459
1.6	0.18331515	15.02930442	-7.8614231	4.20844823	2.00827476
1.61	0.18298268	14.69645277	-7.56110341	4.13807389	2.27798439
1.62	0.18264791	14.37549782	-7.27588015	4.0714222	2.53031063
1.63	0.18231292	14.06461381	-7.00554677	4.00887545	2.76468202
1.64	0.18197829	13.76138056	-6.74941141	3.95074423	2.98050678
1.65	0.18164495	13.46466001	-6.50537074	3.89639349	3.17924752
1.66	0.18130279	13.17129855	-6.27277427	3.84672495	3.36043747
1.67	0.18095662	12.88179634	-6.04977405	3.8003458	3.52521261
1.68	0.18060604	12.59859462	-5.83683265	3.75739892	3.67747988
1.69	0.18024266	12.3218645	-5.63430932	3.71804664	3.81499993
1.7	0.17987583	12.05621148	-5.44360268	3.68214216	3.94376124
1.71	0.17950322	11.80385	-5.26625819	3.65084969	4.06735463
1.72	0.17913819	11.56643666	-5.10547333	3.62392452	4.17996194
1.73	0.17877423	11.35005063	-4.96097341	3.60247083	4.2950836
1.74	0.17841939	11.1549446	-4.83500626	3.58672095	4.40826256
1.75	0.17807473	11.00336299	-4.72981271	3.57675877	4.54519002
1.76	0.17774299	10.83484052	-4.64019323	3.57395351	4.63914593
1.77	0.17743413	10.71429008	-4.57340777	3.57718435	4.75952727
1.78	0.17715428	10.60782318	-4.52543065	3.58634301	4.86868141
